<svg xmlns="http://www.w3.org/2000/svg" version="1.1" xmlns:xlink="http://www.w3.org/1999/xlink" xmlns:svgjs="http://svgjs.com/svgjs" width="1440" height="560" preserveAspectRatio="none" viewBox="0 0 1440 560"><g mask="url(&quot;#SvgjsMask1016&quot;)" fill="none"><path d="M-39.08 367.46L-39.08 367.46" stroke="rgba(72, 25, 63, 0.09)" stroke-width="1.5"></path><path d="M-39.08 367.46L43.69 353.87" stroke="rgba(72, 25, 63, 0.09)" stroke-width="1.5"></path><path d="M-39.08 367.46L-101.19 511.81" stroke="rgba(72, 25, 63, 0.09)" stroke-width="1.5"></path><path d="M-39.08 367.46L52.56 559.08" stroke="rgba(72, 25, 63, 0.09)" stroke-width="1.5"></path><path d="M-39.08 367.46L212.04 380.38" stroke="rgba(72, 25, 63, 0.09)" stroke-width="1.5"></path><path d="M-39.08 367.46L204.06 529.13" stroke="rgba(72, 25, 63, 0.09)" stroke-width="1.5"></path><path d="M-39.08 367.46L-51.61 690.95" stroke="rgba(72, 25, 63, 0.09)" stroke-width="1.5"></path><path d="M-101.19 511.81L-101.19 511.81" stroke="rgba(72, 25, 63, 0.09)" stroke-width="1.5"></path><path d="M-101.19 511.81L52.56 559.08" stroke="rgba(72, 25, 63, 0.09)" stroke-width="1.5"></path><path d="M-101.19 511.81L-51.61 690.95" stroke="rgba(72, 25, 63, 0.09)" stroke-width="1.5"></path><path d="M-51.61 690.95L-51.61 690.95" stroke="rgba(72, 25, 63, 0.09)" stroke-width="1.5"></path><path d="M-51.61 690.95L80.68 692.7" stroke="rgba(72, 25, 63, 0.09)" stroke-width="1.5"></path><path d="M-51.61 690.95L52.56 559.08" stroke="rgba(72, 25, 63, 0.09)" stroke-width="1.5"></path><path d="M-51.61 690.95L210.56 641.18" stroke="rgba(72, 25, 63, 0.09)" stroke-width="1.5"></path><path d="M-51.61 690.95L204.06 529.13" stroke="rgba(72, 25, 63, 0.09)" stroke-width="1.5"></path><path d="M43.69 353.87L43.69 353.87" stroke="rgba(72, 25, 63, 0.09)" stroke-width="1.5"></path><path d="M43.69 353.87L212.04 380.38" stroke="rgba(72, 25, 63, 0.09)" stroke-width="1.5"></path><path d="M43.69 353.87L52.56 559.08" stroke="rgba(72, 25, 63, 0.09)" stroke-width="1.5"></path><path d="M43.69 353.87L-101.19 511.81" stroke="rgba(72, 25, 63, 0.09)" stroke-width="1.5"></path><path d="M43.69 353.87L204.06 529.13" stroke="rgba(72, 25, 63, 0.09)" stroke-width="1.5"></path><path d="M52.56 559.08L52.56 559.08" stroke="rgba(72, 25, 63, 0.09)" stroke-width="1.5"></path><path d="M52.56 559.08L80.68 692.7" stroke="rgba(72, 25, 63, 0.09)" stroke-width="1.5"></path><path d="M52.56 559.08L204.06 529.13" stroke="rgba(72, 25, 63, 0.09)" stroke-width="1.5"></path><path d="M80.68 692.7L80.68 692.7" stroke="rgba(72, 25, 63, 0.09)" stroke-width="1.5"></path><path d="M80.68 692.7L210.56 641.18" stroke="rgba(72, 25, 63, 0.09)" stroke-width="1.5"></path><path d="M80.68 692.7L204.06 529.13" stroke="rgba(72, 25, 63, 0.09)" stroke-width="1.5"></path><path d="M80.68 692.7L-101.19 511.81" stroke="rgba(72, 25, 63, 0.09)" stroke-width="1.5"></path><path d="M80.68 692.7L390.51 708.29" stroke="rgba(72, 25, 63, 0.09)" stroke-width="1.5"></path><path d="M212.04 380.38L212.04 380.38" stroke="rgba(72, 25, 63, 0.09)" stroke-width="1.5"></path><path d="M212.04 380.38L204.06 529.13" stroke="rgba(72, 25, 63, 0.09)" stroke-width="1.5"></path><path d="M212.04 380.38L361.22 374.92" stroke="rgba(72, 25, 63, 0.09)" stroke-width="1.5"></path><path d="M212.04 380.38L372.19 512.2" stroke="rgba(72, 25, 63, 0.09)" stroke-width="1.5"></path><path d="M212.04 380.38L52.56 559.08" stroke="rgba(72, 25, 63, 0.09)" stroke-width="1.5"></path><path d="M204.06 529.13L204.06 529.13" stroke="rgba(72, 25, 63, 0.09)" stroke-width="1.5"></path><path d="M204.06 529.13L210.56 641.18" stroke="rgba(72, 25, 63, 0.09)" stroke-width="1.5"></path><path d="M204.06 529.13L372.19 512.2" stroke="rgba(72, 25, 63, 0.09)" stroke-width="1.5"></path><path d="M210.56 641.18L210.56 641.18" stroke="rgba(72, 25, 63, 0.09)" stroke-width="1.5"></path><path d="M210.56 641.18L52.56 559.08" stroke="rgba(72, 25, 63, 0.09)" stroke-width="1.5"></path><path d="M210.56 641.18L390.51 708.29" stroke="rgba(72, 25, 63, 0.09)" stroke-width="1.5"></path><path d="M210.56 641.18L372.19 512.2" stroke="rgba(72, 25, 63, 0.09)" stroke-width="1.5"></path><path d="M361.22 374.92L361.22 374.92" stroke="rgba(72, 25, 63, 0.09)" stroke-width="1.5"></path><path d="M361.22 374.92L372.19 512.2" stroke="rgba(72, 25, 63, 0.09)" stroke-width="1.5"></path><path d="M361.22 374.92L520 383.87" stroke="rgba(72, 25, 63, 0.09)" stroke-width="1.5"></path><path d="M372.19 512.2L372.19 512.2" stroke="rgba(72, 25, 63, 0.09)" stroke-width="1.5"></path><path d="M372.19 512.2L521.39 531.41" stroke="rgba(72, 25, 63, 0.09)" stroke-width="1.5"></path><path d="M372.19 512.2L520 383.87" stroke="rgba(72, 25, 63, 0.09)" stroke-width="1.5"></path><path d="M372.19 512.2L390.51 708.29" stroke="rgba(72, 25, 63, 0.09)" stroke-width="1.5"></path><path d="M390.51 708.29L390.51 708.29" stroke="rgba(72, 25, 63, 0.09)" stroke-width="1.5"></path><path d="M390.51 708.29L515.66 696.66" stroke="rgba(72, 25, 63, 0.09)" stroke-width="1.5"></path><path d="M390.51 708.29L521.39 531.41" stroke="rgba(72, 25, 63, 0.09)" stroke-width="1.5"></path><path d="M390.51 708.29L204.06 529.13" stroke="rgba(72, 25, 63, 0.09)" stroke-width="1.5"></path><path d="M520 383.87L520 383.87" stroke="rgba(72, 25, 63, 0.09)" stroke-width="1.5"></path><path d="M520 383.87L642.45 375.78" stroke="rgba(72, 25, 63, 0.09)" stroke-width="1.5"></path><path d="M520 383.87L521.39 531.41" stroke="rgba(72, 25, 63, 0.09)" stroke-width="1.5"></path><path d="M520 383.87L658.83 230.41" stroke="rgba(72, 25, 63, 0.09)" stroke-width="1.5"></path><path d="M521.39 531.41L521.39 531.41" stroke="rgba(72, 25, 63, 0.09)" stroke-width="1.5"></path><path d="M521.39 531.41L666.98 542.13" stroke="rgba(72, 25, 63, 0.09)" stroke-width="1.5"></path><path d="M521.39 531.41L515.66 696.66" stroke="rgba(72, 25, 63, 0.09)" stroke-width="1.5"></path><path d="M521.39 531.41L660.94 664.4" stroke="rgba(72, 25, 63, 0.09)" stroke-width="1.5"></path><path d="M515.66 696.66L515.66 696.66" stroke="rgba(72, 25, 63, 0.09)" stroke-width="1.5"></path><path d="M515.66 696.66L660.94 664.4" stroke="rgba(72, 25, 63, 0.09)" stroke-width="1.5"></path><path d="M515.66 696.66L666.98 542.13" stroke="rgba(72, 25, 63, 0.09)" stroke-width="1.5"></path><path d="M658.83 230.41L658.83 230.41" stroke="rgba(72, 25, 63, 0.09)" stroke-width="1.5"></path><path d="M658.83 230.41L642.45 375.78" stroke="rgba(72, 25, 63, 0.09)" stroke-width="1.5"></path><path d="M658.83 230.41L836.94 199.76" stroke="rgba(72, 25, 63, 0.09)" stroke-width="1.5"></path><path d="M642.45 375.78L642.45 375.78" stroke="rgba(72, 25, 63, 0.09)" stroke-width="1.5"></path><path d="M642.45 375.78L666.98 542.13" stroke="rgba(72, 25, 63, 0.09)" stroke-width="1.5"></path><path d="M642.45 375.78L521.39 531.41" stroke="rgba(72, 25, 63, 0.09)" stroke-width="1.5"></path><path d="M666.98 542.13L666.98 542.13" stroke="rgba(72, 25, 63, 0.09)" stroke-width="1.5"></path><path d="M666.98 542.13L660.94 664.4" stroke="rgba(72, 25, 63, 0.09)" stroke-width="1.5"></path><path d="M666.98 542.13L812.29 553.73" stroke="rgba(72, 25, 63, 0.09)" stroke-width="1.5"></path><path d="M660.94 664.4L660.94 664.4" stroke="rgba(72, 25, 63, 0.09)" stroke-width="1.5"></path><path d="M660.94 664.4L841.65 656.17" stroke="rgba(72, 25, 63, 0.09)" stroke-width="1.5"></path><path d="M660.94 664.4L812.29 553.73" stroke="rgba(72, 25, 63, 0.09)" stroke-width="1.5"></path><path d="M836.94 199.76L836.94 199.76" stroke="rgba(72, 25, 63, 0.09)" stroke-width="1.5"></path><path d="M836.94 199.76L974.67 192.84" stroke="rgba(72, 25, 63, 0.09)" stroke-width="1.5"></path><path d="M812.29 553.73L812.29 553.73" stroke="rgba(72, 25, 63, 0.09)" stroke-width="1.5"></path><path d="M812.29 553.73L841.65 656.17" stroke="rgba(72, 25, 63, 0.09)" stroke-width="1.5"></path><path d="M812.29 553.73L986.98 514.74" stroke="rgba(72, 25, 63, 0.09)" stroke-width="1.5"></path><path d="M812.29 553.73L949.34 672.68" stroke="rgba(72, 25, 63, 0.09)" stroke-width="1.5"></path><path d="M812.29 553.73L999.73 406.27" stroke="rgba(72, 25, 63, 0.09)" stroke-width="1.5"></path><path d="M841.65 656.17L841.65 656.17" stroke="rgba(72, 25, 63, 0.09)" stroke-width="1.5"></path><path d="M841.65 656.17L949.34 672.68" stroke="rgba(72, 25, 63, 0.09)" stroke-width="1.5"></path><path d="M841.65 656.17L986.98 514.74" stroke="rgba(72, 25, 63, 0.09)" stroke-width="1.5"></path><path d="M1008.29 -100.51L1008.29 -100.51" stroke="rgba(72, 25, 63, 0.09)" stroke-width="1.5"></path><path d="M1008.29 -100.51L1132.75 -37.9" stroke="rgba(72, 25, 63, 0.09)" stroke-width="1.5"></path><path d="M1008.29 -100.51L994.03 111.8" stroke="rgba(72, 25, 63, 0.09)" stroke-width="1.5"></path><path d="M994.03 111.8L994.03 111.8" stroke="rgba(72, 25, 63, 0.09)" stroke-width="1.5"></path><path d="M994.03 111.8L974.67 192.84" stroke="rgba(72, 25, 63, 0.09)" stroke-width="1.5"></path><path d="M994.03 111.8L1143.45 96.51" stroke="rgba(72, 25, 63, 0.09)" stroke-width="1.5"></path><path d="M994.03 111.8L1134.91 191.42" stroke="rgba(72, 25, 63, 0.09)" stroke-width="1.5"></path><path d="M994.03 111.8L836.94 199.76" stroke="rgba(72, 25, 63, 0.09)" stroke-width="1.5"></path><path d="M994.03 111.8L1132.75 -37.9" stroke="rgba(72, 25, 63, 0.09)" stroke-width="1.5"></path><path d="M974.67 192.84L974.67 192.84" stroke="rgba(72, 25, 63, 0.09)" stroke-width="1.5"></path><path d="M974.67 192.84L1134.91 191.42" stroke="rgba(72, 25, 63, 0.09)" stroke-width="1.5"></path><path d="M999.73 406.27L999.73 406.27" stroke="rgba(72, 25, 63, 0.09)" stroke-width="1.5"></path><path d="M999.73 406.27L1098.2 383.26" stroke="rgba(72, 25, 63, 0.09)" stroke-width="1.5"></path><path d="M986.98 514.74L986.98 514.74" stroke="rgba(72, 25, 63, 0.09)" stroke-width="1.5"></path><path d="M986.98 514.74L999.73 406.27" stroke="rgba(72, 25, 63, 0.09)" stroke-width="1.5"></path><path d="M986.98 514.74L1118.92 488.85" stroke="rgba(72, 25, 63, 0.09)" stroke-width="1.5"></path><path d="M986.98 514.74L949.34 672.68" stroke="rgba(72, 25, 63, 0.09)" stroke-width="1.5"></path><path d="M986.98 514.74L1098.2 383.26" stroke="rgba(72, 25, 63, 0.09)" stroke-width="1.5"></path><path d="M949.34 672.68L949.34 672.68" stroke="rgba(72, 25, 63, 0.09)" stroke-width="1.5"></path><path d="M949.34 672.68L1129.14 640.87" stroke="rgba(72, 25, 63, 0.09)" stroke-width="1.5"></path><path d="M949.34 672.68L1118.92 488.85" stroke="rgba(72, 25, 63, 0.09)" stroke-width="1.5"></path><path d="M949.34 672.68L999.73 406.27" stroke="rgba(72, 25, 63, 0.09)" stroke-width="1.5"></path><path d="M1132.75 -37.9L1132.75 -37.9" stroke="rgba(72, 25, 63, 0.09)" stroke-width="1.5"></path><path d="M1132.75 -37.9L1143.45 96.51" stroke="rgba(72, 25, 63, 0.09)" stroke-width="1.5"></path><path d="M1132.75 -37.9L1296.44 96.24" stroke="rgba(72, 25, 63, 0.09)" stroke-width="1.5"></path><path d="M1132.75 -37.9L1134.91 191.42" stroke="rgba(72, 25, 63, 0.09)" stroke-width="1.5"></path><path d="M1143.45 96.51L1143.45 96.51" stroke="rgba(72, 25, 63, 0.09)" stroke-width="1.5"></path><path d="M1143.45 96.51L1134.91 191.42" stroke="rgba(72, 25, 63, 0.09)" stroke-width="1.5"></path><path d="M1143.45 96.51L1296.44 96.24" stroke="rgba(72, 25, 63, 0.09)" stroke-width="1.5"></path><path d="M1143.45 96.51L1253.57 225.66" stroke="rgba(72, 25, 63, 0.09)" stroke-width="1.5"></path><path d="M1143.45 96.51L974.67 192.84" stroke="rgba(72, 25, 63, 0.09)" stroke-width="1.5"></path><path d="M1134.91 191.42L1134.91 191.42" stroke="rgba(72, 25, 63, 0.09)" stroke-width="1.5"></path><path d="M1134.91 191.42L1253.57 225.66" stroke="rgba(72, 25, 63, 0.09)" stroke-width="1.5"></path><path d="M1098.2 383.26L1098.2 383.26" stroke="rgba(72, 25, 63, 0.09)" stroke-width="1.5"></path><path d="M1098.2 383.26L1118.92 488.85" stroke="rgba(72, 25, 63, 0.09)" stroke-width="1.5"></path><path d="M1098.2 383.26L1244.24 396.82" stroke="rgba(72, 25, 63, 0.09)" stroke-width="1.5"></path><path d="M1118.92 488.85L1118.92 488.85" stroke="rgba(72, 25, 63, 0.09)" stroke-width="1.5"></path><path d="M1118.92 488.85L1247.4 544.9" stroke="rgba(72, 25, 63, 0.09)" stroke-width="1.5"></path><path d="M1118.92 488.85L999.73 406.27" stroke="rgba(72, 25, 63, 0.09)" stroke-width="1.5"></path><path d="M1129.14 640.87L1129.14 640.87" stroke="rgba(72, 25, 63, 0.09)" stroke-width="1.5"></path><path d="M1129.14 640.87L1247.4 544.9" stroke="rgba(72, 25, 63, 0.09)" stroke-width="1.5"></path><path d="M1129.14 640.87L1118.92 488.85" stroke="rgba(72, 25, 63, 0.09)" stroke-width="1.5"></path><path d="M1129.14 640.87L1288.01 700.38" stroke="rgba(72, 25, 63, 0.09)" stroke-width="1.5"></path><path d="M1129.14 640.87L986.98 514.74" stroke="rgba(72, 25, 63, 0.09)" stroke-width="1.5"></path><path d="M1129.14 640.87L1098.2 383.26" stroke="rgba(72, 25, 63, 0.09)" stroke-width="1.5"></path><path d="M1296.44 96.24L1296.44 96.24" stroke="rgba(72, 25, 63, 0.09)" stroke-width="1.5"></path><path d="M1296.44 96.24L1432.43 105.78" stroke="rgba(72, 25, 63, 0.09)" stroke-width="1.5"></path><path d="M1296.44 96.24L1253.57 225.66" stroke="rgba(72, 25, 63, 0.09)" stroke-width="1.5"></path><path d="M1296.44 96.24L1134.91 191.42" stroke="rgba(72, 25, 63, 0.09)" stroke-width="1.5"></path><path d="M1253.57 225.66L1253.57 225.66" stroke="rgba(72, 25, 63, 0.09)" stroke-width="1.5"></path><path d="M1244.24 396.82L1244.24 396.82" stroke="rgba(72, 25, 63, 0.09)" stroke-width="1.5"></path><path d="M1244.24 396.82L1247.4 544.9" stroke="rgba(72, 25, 63, 0.09)" stroke-width="1.5"></path><path d="M1247.4 544.9L1247.4 544.9" stroke="rgba(72, 25, 63, 0.09)" stroke-width="1.5"></path><path d="M1288.01 700.38L1288.01 700.38" stroke="rgba(72, 25, 63, 0.09)" stroke-width="1.5"></path><path d="M1288.01 700.38L1247.4 544.9" stroke="rgba(72, 25, 63, 0.09)" stroke-width="1.5"></path><path d="M1396.53 -68.32L1396.53 -68.32" stroke="rgba(72, 25, 63, 0.09)" stroke-width="1.5"></path><path d="M1396.53 -68.32L1432.43 105.78" stroke="rgba(72, 25, 63, 0.09)" stroke-width="1.5"></path><path d="M1396.53 -68.32L1296.44 96.24" stroke="rgba(72, 25, 63, 0.09)" stroke-width="1.5"></path><path d="M1432.43 105.78L1432.43 105.78" stroke="rgba(72, 25, 63, 0.09)" stroke-width="1.5"></path><path d="M1432.43 105.78L1540.01 191.74" stroke="rgba(72, 25, 63, 0.09)" stroke-width="1.5"></path><path d="M1447.77 351.4L1447.77 351.4" stroke="rgba(72, 25, 63, 0.09)" stroke-width="1.5"></path><path d="M1447.77 351.4L1577.15 378.12" stroke="rgba(72, 25, 63, 0.09)" stroke-width="1.5"></path><path d="M1447.77 351.4L1437.33 495.83" stroke="rgba(72, 25, 63, 0.09)" stroke-width="1.5"></path><path d="M1437.33 495.83L1437.33 495.83" stroke="rgba(72, 25, 63, 0.09)" stroke-width="1.5"></path><path d="M1437.33 495.83L1610.19 537.54" stroke="rgba(72, 25, 63, 0.09)" stroke-width="1.5"></path><path d="M1437.33 495.83L1577.15 378.12" stroke="rgba(72, 25, 63, 0.09)" stroke-width="1.5"></path><path d="M1455.01 689.08L1455.01 689.08" stroke="rgba(72, 25, 63, 0.09)" stroke-width="1.5"></path><path d="M1455.01 689.08L1565.38 644.8" stroke="rgba(72, 25, 63, 0.09)" stroke-width="1.5"></path><path d="M1455.01 689.08L1288.01 700.38" stroke="rgba(72, 25, 63, 0.09)" stroke-width="1.5"></path><path d="M1595.52 -79.6L1595.52 -79.6" stroke="rgba(72, 25, 63, 0.09)" stroke-width="1.5"></path><path d="M1595.52 -79.6L1612.23 54.72" stroke="rgba(72, 25, 63, 0.09)" stroke-width="1.5"></path><path d="M1595.52 -79.6L1396.53 -68.32" stroke="rgba(72, 25, 63, 0.09)" stroke-width="1.5"></path><path d="M1595.52 -79.6L1432.43 105.78" stroke="rgba(72, 25, 63, 0.09)" stroke-width="1.5"></path><path d="M1595.52 -79.6L1540.01 191.74" stroke="rgba(72, 25, 63, 0.09)" stroke-width="1.5"></path><path d="M1612.23 54.72L1612.23 54.72" stroke="rgba(72, 25, 63, 0.09)" stroke-width="1.5"></path><path d="M1612.23 54.72L1540.01 191.74" stroke="rgba(72, 25, 63, 0.09)" stroke-width="1.5"></path><path d="M1612.23 54.72L1432.43 105.78" stroke="rgba(72, 25, 63, 0.09)" stroke-width="1.5"></path><path d="M1612.23 54.72L1396.53 -68.32" stroke="rgba(72, 25, 63, 0.09)" stroke-width="1.5"></path><path d="M1612.23 54.72L1296.44 96.24" stroke="rgba(72, 25, 63, 0.09)" stroke-width="1.5"></path><path d="M1540.01 191.74L1540.01 191.74" stroke="rgba(72, 25, 63, 0.09)" stroke-width="1.5"></path><path d="M1540.01 191.74L1447.77 351.4" stroke="rgba(72, 25, 63, 0.09)" stroke-width="1.5"></path><path d="M1577.15 378.12L1577.15 378.12" stroke="rgba(72, 25, 63, 0.09)" stroke-width="1.5"></path><path d="M1577.15 378.12L1610.19 537.54" stroke="rgba(72, 25, 63, 0.09)" stroke-width="1.5"></path><path d="M1577.15 378.12L1540.01 191.74" stroke="rgba(72, 25, 63, 0.09)" stroke-width="1.5"></path><path d="M1610.19 537.54L1610.19 537.54" stroke="rgba(72, 25, 63, 0.09)" stroke-width="1.5"></path><path d="M1610.19 537.54L1565.38 644.8" stroke="rgba(72, 25, 63, 0.09)" stroke-width="1.5"></path><path d="M1565.38 644.8L1565.38 644.8" stroke="rgba(72, 25, 63, 0.09)" stroke-width="1.5"></path><path d="M1565.38 644.8L1437.33 495.83" stroke="rgba(72, 25, 63, 0.09)" stroke-width="1.5"></path><path d="M1565.38 644.8L1577.15 378.12" stroke="rgba(72, 25, 63, 0.09)" stroke-width="1.5"></path><path d="M1565.38 644.8L1288.01 700.38" stroke="rgba(72, 25, 63, 0.09)" stroke-width="1.5"></path><path d="M1565.38 644.8L1447.77 351.4" stroke="rgba(72, 25, 63, 0.09)" stroke-width="1.5"></path><circle r="5" cx="-39.08" cy="367.46" fill="rgba(72, 25, 63, 0.09)"></circle><circle r="5" cx="-101.19" cy="511.81" fill="rgba(72, 25, 63, 0.09)"></circle><circle r="5" cx="-51.61" cy="690.95" fill="rgba(72, 25, 63, 0.09)"></circle><circle r="5" cx="43.69" cy="353.87" fill="rgba(72, 25, 63, 0.09)"></circle><circle r="5" cx="52.56" cy="559.08" fill="rgba(72, 25, 63, 0.09)"></circle><circle r="5" cx="80.68" cy="692.7" fill="rgba(72, 25, 63, 0.09)"></circle><circle r="5" cx="212.04" cy="380.38" fill="rgba(72, 25, 63, 0.09)"></circle><circle r="5" cx="204.06" cy="529.13" fill="rgba(72, 25, 63, 0.09)"></circle><circle r="5" cx="210.56" cy="641.18" fill="rgba(72, 25, 63, 0.09)"></circle><circle r="5" cx="361.22" cy="374.92" fill="rgba(72, 25, 63, 0.09)"></circle><circle r="5" cx="372.19" cy="512.2" fill="rgba(72, 25, 63, 0.09)"></circle><circle r="5" cx="390.51" cy="708.29" fill="rgba(72, 25, 63, 0.09)"></circle><circle r="5" cx="520" cy="383.87" fill="rgba(72, 25, 63, 0.09)"></circle><circle r="5" cx="521.39" cy="531.41" fill="rgba(72, 25, 63, 0.09)"></circle><circle r="5" cx="515.66" cy="696.66" fill="rgba(72, 25, 63, 0.09)"></circle><circle r="5" cx="658.83" cy="230.41" fill="rgba(72, 25, 63, 0.09)"></circle><circle r="5" cx="642.45" cy="375.78" fill="rgba(72, 25, 63, 0.09)"></circle><circle r="5" cx="666.98" cy="542.13" fill="rgba(72, 25, 63, 0.09)"></circle><circle r="5" cx="660.94" cy="664.4" fill="rgba(72, 25, 63, 0.09)"></circle><circle r="5" cx="836.94" cy="199.76" fill="rgba(72, 25, 63, 0.09)"></circle><circle r="5" cx="812.29" cy="553.73" fill="rgba(72, 25, 63, 0.09)"></circle><circle r="5" cx="841.65" cy="656.17" fill="rgba(72, 25, 63, 0.09)"></circle><circle r="5" cx="1008.29" cy="-100.51" fill="rgba(72, 25, 63, 0.09)"></circle><circle r="5" cx="994.03" cy="111.8" fill="rgba(72, 25, 63, 0.09)"></circle><circle r="5" cx="974.67" cy="192.84" fill="rgba(72, 25, 63, 0.09)"></circle><circle r="5" cx="999.73" cy="406.27" fill="rgba(72, 25, 63, 0.09)"></circle><circle r="5" cx="986.98" cy="514.74" fill="rgba(72, 25, 63, 0.09)"></circle><circle r="5" cx="949.34" cy="672.68" fill="rgba(72, 25, 63, 0.09)"></circle><circle r="5" cx="1132.75" cy="-37.9" fill="rgba(72, 25, 63, 0.09)"></circle><circle r="5" cx="1143.45" cy="96.51" fill="rgba(72, 25, 63, 0.09)"></circle><circle r="5" cx="1134.91" cy="191.42" fill="rgba(72, 25, 63, 0.09)"></circle><circle r="5" cx="1098.2" cy="383.26" fill="rgba(72, 25, 63, 0.09)"></circle><circle r="5" cx="1118.92" cy="488.85" fill="rgba(72, 25, 63, 0.09)"></circle><circle r="5" cx="1129.14" cy="640.87" fill="rgba(72, 25, 63, 0.09)"></circle><circle r="5" cx="1296.44" cy="96.24" fill="rgba(72, 25, 63, 0.09)"></circle><circle r="5" cx="1253.57" cy="225.66" fill="rgba(72, 25, 63, 0.09)"></circle><circle r="5" cx="1244.24" cy="396.82" fill="rgba(72, 25, 63, 0.09)"></circle><circle r="5" cx="1247.4" cy="544.9" fill="rgba(72, 25, 63, 0.09)"></circle><circle r="5" cx="1288.01" cy="700.38" fill="rgba(72, 25, 63, 0.09)"></circle><circle r="5" cx="1396.53" cy="-68.32" fill="rgba(72, 25, 63, 0.09)"></circle><circle r="5" cx="1432.43" cy="105.78" fill="rgba(72, 25, 63, 0.09)"></circle><circle r="5" cx="1447.77" cy="351.4" fill="rgba(72, 25, 63, 0.09)"></circle><circle r="5" cx="1437.33" cy="495.83" fill="rgba(72, 25, 63, 0.09)"></circle><circle r="5" cx="1455.01" cy="689.08" fill="rgba(72, 25, 63, 0.09)"></circle><circle r="5" cx="1595.52" cy="-79.6" fill="rgba(72, 25, 63, 0.09)"></circle><circle r="5" cx="1612.23" cy="54.72" fill="rgba(72, 25, 63, 0.09)"></circle><circle r="5" cx="1540.01" cy="191.74" fill="rgba(72, 25, 63, 0.09)"></circle><circle r="5" cx="1577.15" cy="378.12" fill="rgba(72, 25, 63, 0.09)"></circle><circle r="5" cx="1610.19" cy="537.54" fill="rgba(72, 25, 63, 0.09)"></circle><circle r="5" cx="1565.38" cy="644.8" fill="rgba(72, 25, 63, 0.09)"></circle><path d="M-75.69 537.67L-75.69 537.67" stroke="hsla(311.5, 48.5%, 24.7%, 0.2)" stroke-width="1.5"></path><path d="M-75.69 537.67L-71.81 663.24" stroke="hsla(311.5, 48.5%, 24.7%, 0.2)" stroke-width="1.5"></path><path d="M-75.69 537.67L72.31 511.27" stroke="hsla(311.5, 48.5%, 24.7%, 0.2)" stroke-width="1.5"></path><path d="M-75.69 537.67L70.36 702.15" stroke="hsla(311.5, 48.5%, 24.7%, 0.2)" stroke-width="1.5"></path><path d="M-75.69 537.67L225.66 525.11" stroke="hsla(311.5, 48.5%, 24.7%, 0.2)" stroke-width="1.5"></path><path d="M225.66 525.11L225.66 525.11" stroke="hsla(311.5, 48.5%, 24.7%, 0.2)" stroke-width="1.5"></path><path d="M225.66 525.11L72.31 511.27" stroke="hsla(311.5, 48.5%, 24.7%, 0.2)" stroke-width="1.5"></path><path d="M225.66 525.11L256.15 680.26" stroke="hsla(311.5, 48.5%, 24.7%, 0.2)" stroke-width="1.5"></path><path d="M225.66 525.11L339.41 653.11" stroke="hsla(311.5, 48.5%, 24.7%, 0.2)" stroke-width="1.5"></path><path d="M528.2 495.83L528.2 495.83" stroke="hsla(311.5, 48.5%, 24.7%, 0.2)" stroke-width="1.5"></path><path d="M528.2 495.83L409.28 498.51" stroke="hsla(311.5, 48.5%, 24.7%, 0.2)" stroke-width="1.5"></path><path d="M528.2 495.83L683.69 489.03" stroke="hsla(311.5, 48.5%, 24.7%, 0.2)" stroke-width="1.5"></path><path d="M839.83 366.1L839.83 366.1" stroke="hsla(311.5, 48.5%, 24.7%, 0.2)" stroke-width="1.5"></path><path d="M839.83 366.1L696.94 371.58" stroke="hsla(311.5, 48.5%, 24.7%, 0.2)" stroke-width="1.5"></path><path d="M839.83 366.1L800 507.05" stroke="hsla(311.5, 48.5%, 24.7%, 0.2)" stroke-width="1.5"></path><path d="M839.83 366.1L943.49 518.9" stroke="hsla(311.5, 48.5%, 24.7%, 0.2)" stroke-width="1.5"></path><path d="M839.83 366.1L683.69 489.03" stroke="hsla(311.5, 48.5%, 24.7%, 0.2)" stroke-width="1.5"></path><path d="M839.83 366.1L818.48 652.94" stroke="hsla(311.5, 48.5%, 24.7%, 0.2)" stroke-width="1.5"></path><path d="M800 507.05L800 507.05" stroke="hsla(311.5, 48.5%, 24.7%, 0.2)" stroke-width="1.5"></path><path d="M800 507.05L683.69 489.03" stroke="hsla(311.5, 48.5%, 24.7%, 0.2)" stroke-width="1.5"></path><path d="M800 507.05L943.49 518.9" stroke="hsla(311.5, 48.5%, 24.7%, 0.2)" stroke-width="1.5"></path><path d="M800 507.05L818.48 652.94" stroke="hsla(311.5, 48.5%, 24.7%, 0.2)" stroke-width="1.5"></path><path d="M818.48 652.94L818.48 652.94" stroke="hsla(311.5, 48.5%, 24.7%, 0.2)" stroke-width="1.5"></path><path d="M818.48 652.94L679.28 667.47" stroke="hsla(311.5, 48.5%, 24.7%, 0.2)" stroke-width="1.5"></path><path d="M943.49 518.9L943.49 518.9" stroke="hsla(311.5, 48.5%, 24.7%, 0.2)" stroke-width="1.5"></path><path d="M943.49 518.9L978.3 669.1" stroke="hsla(311.5, 48.5%, 24.7%, 0.2)" stroke-width="1.5"></path><path d="M1156.64 699.77L1156.64 699.77" stroke="hsla(311.5, 48.5%, 24.7%, 0.2)" stroke-width="1.5"></path><path d="M1156.64 699.77L1242.33 660.33" stroke="hsla(311.5, 48.5%, 24.7%, 0.2)" stroke-width="1.5"></path><path d="M1156.64 699.77L1097.32 554.18" stroke="hsla(311.5, 48.5%, 24.7%, 0.2)" stroke-width="1.5"></path><path d="M1156.64 699.77L978.3 669.1" stroke="hsla(311.5, 48.5%, 24.7%, 0.2)" stroke-width="1.5"></path><path d="M1282.58 206.24L1282.58 206.24" stroke="hsla(311.5, 48.5%, 24.7%, 0.2)" stroke-width="1.5"></path><path d="M1282.58 206.24L1162.49 222.42" stroke="hsla(311.5, 48.5%, 24.7%, 0.2)" stroke-width="1.5"></path><path d="M1282.58 206.24L1274.33 61.08" stroke="hsla(311.5, 48.5%, 24.7%, 0.2)" stroke-width="1.5"></path><path d="M1282.58 206.24L1431.01 226.3" stroke="hsla(311.5, 48.5%, 24.7%, 0.2)" stroke-width="1.5"></path><path d="M1282.58 206.24L1249.51 378.74" stroke="hsla(311.5, 48.5%, 24.7%, 0.2)" stroke-width="1.5"></path><path d="M1445.41 59.02L1445.41 59.02" stroke="hsla(311.5, 48.5%, 24.7%, 0.2)" stroke-width="1.5"></path><path d="M1445.41 59.02L1454.36 -70.72" stroke="hsla(311.5, 48.5%, 24.7%, 0.2)" stroke-width="1.5"></path><path d="M1445.41 59.02L1591.71 94.01" stroke="hsla(311.5, 48.5%, 24.7%, 0.2)" stroke-width="1.5"></path><path d="M1445.41 59.02L1431.01 226.3" stroke="hsla(311.5, 48.5%, 24.7%, 0.2)" stroke-width="1.5"></path><path d="M1445.41 59.02L1274.33 61.08" stroke="hsla(311.5, 48.5%, 24.7%, 0.2)" stroke-width="1.5"></path><path d="M1445.41 59.02L1546.5 -106.61" stroke="hsla(311.5, 48.5%, 24.7%, 0.2)" stroke-width="1.5"></path><path d="M1401.58 553.46L1401.58 553.46" stroke="hsla(311.5, 48.5%, 24.7%, 0.2)" stroke-width="1.5"></path><path d="M1401.58 553.46L1298.14 560.1" stroke="hsla(311.5, 48.5%, 24.7%, 0.2)" stroke-width="1.5"></path><path d="M1401.58 553.46L1460.52 685.4" stroke="hsla(311.5, 48.5%, 24.7%, 0.2)" stroke-width="1.5"></path><path d="M1401.58 553.46L1419.79 406.04" stroke="hsla(311.5, 48.5%, 24.7%, 0.2)" stroke-width="1.5"></path><path d="M1401.58 553.46L1578.82 549.87" stroke="hsla(311.5, 48.5%, 24.7%, 0.2)" stroke-width="1.5"></path><path d="M1401.58 553.46L1242.33 660.33" stroke="hsla(311.5, 48.5%, 24.7%, 0.2)" stroke-width="1.5"></path><path d="M-71.81 663.24L-71.81 663.24" stroke="hsla(311.5, 48.5%, 24.7%, 0.2)" stroke-width="1.5"></path><path d="M-71.81 663.24L70.36 702.15" stroke="hsla(311.5, 48.5%, 24.7%, 0.2)" stroke-width="1.5"></path><path d="M-71.81 663.24L72.31 511.27" stroke="hsla(311.5, 48.5%, 24.7%, 0.2)" stroke-width="1.5"></path><path d="M-71.81 663.24L225.66 525.11" stroke="hsla(311.5, 48.5%, 24.7%, 0.2)" stroke-width="1.5"></path><path d="M-71.81 663.24L256.15 680.26" stroke="hsla(311.5, 48.5%, 24.7%, 0.2)" stroke-width="1.5"></path><path d="M72.31 511.27L72.31 511.27" stroke="hsla(311.5, 48.5%, 24.7%, 0.2)" stroke-width="1.5"></path><path d="M72.31 511.27L70.36 702.15" stroke="hsla(311.5, 48.5%, 24.7%, 0.2)" stroke-width="1.5"></path><path d="M70.36 702.15L70.36 702.15" stroke="hsla(311.5, 48.5%, 24.7%, 0.2)" stroke-width="1.5"></path><path d="M70.36 702.15L256.15 680.26" stroke="hsla(311.5, 48.5%, 24.7%, 0.2)" stroke-width="1.5"></path><path d="M70.36 702.15L225.66 525.11" stroke="hsla(311.5, 48.5%, 24.7%, 0.2)" stroke-width="1.5"></path><path d="M70.36 702.15L339.41 653.11" stroke="hsla(311.5, 48.5%, 24.7%, 0.2)" stroke-width="1.5"></path><path d="M256.15 680.26L256.15 680.26" stroke="hsla(311.5, 48.5%, 24.7%, 0.2)" stroke-width="1.5"></path><path d="M256.15 680.26L339.41 653.11" stroke="hsla(311.5, 48.5%, 24.7%, 0.2)" stroke-width="1.5"></path><path d="M256.15 680.26L409.28 498.51" stroke="hsla(311.5, 48.5%, 24.7%, 0.2)" stroke-width="1.5"></path><path d="M256.15 680.26L72.31 511.27" stroke="hsla(311.5, 48.5%, 24.7%, 0.2)" stroke-width="1.5"></path><path d="M409.28 498.51L409.28 498.51" stroke="hsla(311.5, 48.5%, 24.7%, 0.2)" stroke-width="1.5"></path><path d="M409.28 498.51L339.41 653.11" stroke="hsla(311.5, 48.5%, 24.7%, 0.2)" stroke-width="1.5"></path><path d="M339.41 653.11L339.41 653.11" stroke="hsla(311.5, 48.5%, 24.7%, 0.2)" stroke-width="1.5"></path><path d="M339.41 653.11L528.2 495.83" stroke="hsla(311.5, 48.5%, 24.7%, 0.2)" stroke-width="1.5"></path><path d="M696.94 371.58L696.94 371.58" stroke="hsla(311.5, 48.5%, 24.7%, 0.2)" stroke-width="1.5"></path><path d="M696.94 371.58L683.69 489.03" stroke="hsla(311.5, 48.5%, 24.7%, 0.2)" stroke-width="1.5"></path><path d="M696.94 371.58L800 507.05" stroke="hsla(311.5, 48.5%, 24.7%, 0.2)" stroke-width="1.5"></path><path d="M696.94 371.58L528.2 495.83" stroke="hsla(311.5, 48.5%, 24.7%, 0.2)" stroke-width="1.5"></path><path d="M696.94 371.58L943.49 518.9" stroke="hsla(311.5, 48.5%, 24.7%, 0.2)" stroke-width="1.5"></path><path d="M696.94 371.58L679.28 667.47" stroke="hsla(311.5, 48.5%, 24.7%, 0.2)" stroke-width="1.5"></path><path d="M683.69 489.03L683.69 489.03" stroke="hsla(311.5, 48.5%, 24.7%, 0.2)" stroke-width="1.5"></path><path d="M683.69 489.03L679.28 667.47" stroke="hsla(311.5, 48.5%, 24.7%, 0.2)" stroke-width="1.5"></path><path d="M679.28 667.47L679.28 667.47" stroke="hsla(311.5, 48.5%, 24.7%, 0.2)" stroke-width="1.5"></path><path d="M679.28 667.47L800 507.05" stroke="hsla(311.5, 48.5%, 24.7%, 0.2)" stroke-width="1.5"></path><path d="M679.28 667.47L528.2 495.83" stroke="hsla(311.5, 48.5%, 24.7%, 0.2)" stroke-width="1.5"></path><path d="M978.3 669.1L978.3 669.1" stroke="hsla(311.5, 48.5%, 24.7%, 0.2)" stroke-width="1.5"></path><path d="M978.3 669.1L818.48 652.94" stroke="hsla(311.5, 48.5%, 24.7%, 0.2)" stroke-width="1.5"></path><path d="M1161.84 -73.05L1161.84 -73.05" stroke="hsla(311.5, 48.5%, 24.7%, 0.2)" stroke-width="1.5"></path><path d="M1161.84 -73.05L1281.12 -63" stroke="hsla(311.5, 48.5%, 24.7%, 0.2)" stroke-width="1.5"></path><path d="M1161.84 -73.05L1274.33 61.08" stroke="hsla(311.5, 48.5%, 24.7%, 0.2)" stroke-width="1.5"></path><path d="M1162.49 222.42L1162.49 222.42" stroke="hsla(311.5, 48.5%, 24.7%, 0.2)" stroke-width="1.5"></path><path d="M1162.49 222.42L1144.12 388.3" stroke="hsla(311.5, 48.5%, 24.7%, 0.2)" stroke-width="1.5"></path><path d="M1162.49 222.42L1249.51 378.74" stroke="hsla(311.5, 48.5%, 24.7%, 0.2)" stroke-width="1.5"></path><path d="M1162.49 222.42L1274.33 61.08" stroke="hsla(311.5, 48.5%, 24.7%, 0.2)" stroke-width="1.5"></path><path d="M1162.49 222.42L1431.01 226.3" stroke="hsla(311.5, 48.5%, 24.7%, 0.2)" stroke-width="1.5"></path><path d="M1144.12 388.3L1144.12 388.3" stroke="hsla(311.5, 48.5%, 24.7%, 0.2)" stroke-width="1.5"></path><path d="M1144.12 388.3L1249.51 378.74" stroke="hsla(311.5, 48.5%, 24.7%, 0.2)" stroke-width="1.5"></path><path d="M1144.12 388.3L1097.32 554.18" stroke="hsla(311.5, 48.5%, 24.7%, 0.2)" stroke-width="1.5"></path><path d="M1144.12 388.3L1282.58 206.24" stroke="hsla(311.5, 48.5%, 24.7%, 0.2)" stroke-width="1.5"></path><path d="M1144.12 388.3L1298.14 560.1" stroke="hsla(311.5, 48.5%, 24.7%, 0.2)" stroke-width="1.5"></path><path d="M1144.12 388.3L943.49 518.9" stroke="hsla(311.5, 48.5%, 24.7%, 0.2)" stroke-width="1.5"></path><path d="M1097.32 554.18L1097.32 554.18" stroke="hsla(311.5, 48.5%, 24.7%, 0.2)" stroke-width="1.5"></path><path d="M1097.32 554.18L943.49 518.9" stroke="hsla(311.5, 48.5%, 24.7%, 0.2)" stroke-width="1.5"></path><path d="M1097.32 554.18L978.3 669.1" stroke="hsla(311.5, 48.5%, 24.7%, 0.2)" stroke-width="1.5"></path><path d="M1281.12 -63L1281.12 -63" stroke="hsla(311.5, 48.5%, 24.7%, 0.2)" stroke-width="1.5"></path><path d="M1281.12 -63L1274.33 61.08" stroke="hsla(311.5, 48.5%, 24.7%, 0.2)" stroke-width="1.5"></path><path d="M1281.12 -63L1454.36 -70.72" stroke="hsla(311.5, 48.5%, 24.7%, 0.2)" stroke-width="1.5"></path><path d="M1281.12 -63L1445.41 59.02" stroke="hsla(311.5, 48.5%, 24.7%, 0.2)" stroke-width="1.5"></path><path d="M1281.12 -63L1546.5 -106.61" stroke="hsla(311.5, 48.5%, 24.7%, 0.2)" stroke-width="1.5"></path><path d="M1281.12 -63L1282.58 206.24" stroke="hsla(311.5, 48.5%, 24.7%, 0.2)" stroke-width="1.5"></path><path d="M1274.33 61.08L1274.33 61.08" stroke="hsla(311.5, 48.5%, 24.7%, 0.2)" stroke-width="1.5"></path><path d="M1249.51 378.74L1249.51 378.74" stroke="hsla(311.5, 48.5%, 24.7%, 0.2)" stroke-width="1.5"></path><path d="M1249.51 378.74L1419.79 406.04" stroke="hsla(311.5, 48.5%, 24.7%, 0.2)" stroke-width="1.5"></path><path d="M1298.14 560.1L1298.14 560.1" stroke="hsla(311.5, 48.5%, 24.7%, 0.2)" stroke-width="1.5"></path><path d="M1242.33 660.33L1242.33 660.33" stroke="hsla(311.5, 48.5%, 24.7%, 0.2)" stroke-width="1.5"></path><path d="M1242.33 660.33L1298.14 560.1" stroke="hsla(311.5, 48.5%, 24.7%, 0.2)" stroke-width="1.5"></path><path d="M1242.33 660.33L1097.32 554.18" stroke="hsla(311.5, 48.5%, 24.7%, 0.2)" stroke-width="1.5"></path><path d="M1242.33 660.33L1460.52 685.4" stroke="hsla(311.5, 48.5%, 24.7%, 0.2)" stroke-width="1.5"></path><path d="M1242.33 660.33L978.3 669.1" stroke="hsla(311.5, 48.5%, 24.7%, 0.2)" stroke-width="1.5"></path><path d="M1454.36 -70.72L1454.36 -70.72" stroke="hsla(311.5, 48.5%, 24.7%, 0.2)" stroke-width="1.5"></path><path d="M1454.36 -70.72L1546.5 -106.61" stroke="hsla(311.5, 48.5%, 24.7%, 0.2)" stroke-width="1.5"></path><path d="M1431.01 226.3L1431.01 226.3" stroke="hsla(311.5, 48.5%, 24.7%, 0.2)" stroke-width="1.5"></path><path d="M1431.01 226.3L1548.31 239.82" stroke="hsla(311.5, 48.5%, 24.7%, 0.2)" stroke-width="1.5"></path><path d="M1431.01 226.3L1550.01 357.01" stroke="hsla(311.5, 48.5%, 24.7%, 0.2)" stroke-width="1.5"></path><path d="M1419.79 406.04L1419.79 406.04" stroke="hsla(311.5, 48.5%, 24.7%, 0.2)" stroke-width="1.5"></path><path d="M1419.79 406.04L1550.01 357.01" stroke="hsla(311.5, 48.5%, 24.7%, 0.2)" stroke-width="1.5"></path><path d="M1419.79 406.04L1431.01 226.3" stroke="hsla(311.5, 48.5%, 24.7%, 0.2)" stroke-width="1.5"></path><path d="M1419.79 406.04L1298.14 560.1" stroke="hsla(311.5, 48.5%, 24.7%, 0.2)" stroke-width="1.5"></path><path d="M1460.52 685.4L1460.52 685.4" stroke="hsla(311.5, 48.5%, 24.7%, 0.2)" stroke-width="1.5"></path><path d="M1460.52 685.4L1562.25 672.23" stroke="hsla(311.5, 48.5%, 24.7%, 0.2)" stroke-width="1.5"></path><path d="M1460.52 685.4L1578.82 549.87" stroke="hsla(311.5, 48.5%, 24.7%, 0.2)" stroke-width="1.5"></path><path d="M1460.52 685.4L1298.14 560.1" stroke="hsla(311.5, 48.5%, 24.7%, 0.2)" stroke-width="1.5"></path><path d="M1546.5 -106.61L1546.5 -106.61" stroke="hsla(311.5, 48.5%, 24.7%, 0.2)" stroke-width="1.5"></path><path d="M1546.5 -106.61L1591.71 94.01" stroke="hsla(311.5, 48.5%, 24.7%, 0.2)" stroke-width="1.5"></path><path d="M1546.5 -106.61L1274.33 61.08" stroke="hsla(311.5, 48.5%, 24.7%, 0.2)" stroke-width="1.5"></path><path d="M1546.5 -106.61L1548.31 239.82" stroke="hsla(311.5, 48.5%, 24.7%, 0.2)" stroke-width="1.5"></path><path d="M1591.71 94.01L1591.71 94.01" stroke="hsla(311.5, 48.5%, 24.7%, 0.2)" stroke-width="1.5"></path><path d="M1591.71 94.01L1548.31 239.82" stroke="hsla(311.5, 48.5%, 24.7%, 0.2)" stroke-width="1.5"></path><path d="M1591.71 94.01L1431.01 226.3" stroke="hsla(311.5, 48.5%, 24.7%, 0.2)" stroke-width="1.5"></path><path d="M1591.71 94.01L1454.36 -70.72" stroke="hsla(311.5, 48.5%, 24.7%, 0.2)" stroke-width="1.5"></path><path d="M1591.71 94.01L1550.01 357.01" stroke="hsla(311.5, 48.5%, 24.7%, 0.2)" stroke-width="1.5"></path><path d="M1548.31 239.82L1548.31 239.82" stroke="hsla(311.5, 48.5%, 24.7%, 0.2)" stroke-width="1.5"></path><path d="M1548.31 239.82L1550.01 357.01" stroke="hsla(311.5, 48.5%, 24.7%, 0.2)" stroke-width="1.5"></path><path d="M1548.31 239.82L1445.41 59.02" stroke="hsla(311.5, 48.5%, 24.7%, 0.2)" stroke-width="1.5"></path><path d="M1548.31 239.82L1419.79 406.04" stroke="hsla(311.5, 48.5%, 24.7%, 0.2)" stroke-width="1.5"></path><path d="M1548.31 239.82L1282.58 206.24" stroke="hsla(311.5, 48.5%, 24.7%, 0.2)" stroke-width="1.5"></path><path d="M1550.01 357.01L1550.01 357.01" stroke="hsla(311.5, 48.5%, 24.7%, 0.2)" stroke-width="1.5"></path><path d="M1578.82 549.87L1578.82 549.87" stroke="hsla(311.5, 48.5%, 24.7%, 0.2)" stroke-width="1.5"></path><path d="M1578.82 549.87L1562.25 672.23" stroke="hsla(311.5, 48.5%, 24.7%, 0.2)" stroke-width="1.5"></path><path d="M1578.82 549.87L1550.01 357.01" stroke="hsla(311.5, 48.5%, 24.7%, 0.2)" stroke-width="1.5"></path><path d="M1578.82 549.87L1419.79 406.04" stroke="hsla(311.5, 48.5%, 24.7%, 0.2)" stroke-width="1.5"></path><path d="M1562.25 672.23L1562.25 672.23" stroke="hsla(311.5, 48.5%, 24.7%, 0.2)" stroke-width="1.5"></path><path d="M1562.25 672.23L1401.58 553.46" stroke="hsla(311.5, 48.5%, 24.7%, 0.2)" stroke-width="1.5"></path><path d="M1562.25 672.23L1298.14 560.1" stroke="hsla(311.5, 48.5%, 24.7%, 0.2)" stroke-width="1.5"></path><path d="M1562.25 672.23L1419.79 406.04" stroke="hsla(311.5, 48.5%, 24.7%, 0.2)" stroke-width="1.5"></path><circle r="25" cx="-75.69" cy="537.67" fill="url(#SvgjsRadialGradient1017)"></circle><circle r="25" cx="225.66" cy="525.11" fill="url(#SvgjsRadialGradient1017)"></circle><circle r="25" cx="528.2" cy="495.83" fill="url(#SvgjsRadialGradient1017)"></circle><circle r="25" cx="839.83" cy="366.1" fill="url(#SvgjsRadialGradient1017)"></circle><circle r="25" cx="800" cy="507.05" fill="url(#SvgjsRadialGradient1017)"></circle><circle r="25" cx="818.48" cy="652.94" fill="url(#SvgjsRadialGradient1017)"></circle><circle r="25" cx="943.49" cy="518.9" fill="url(#SvgjsRadialGradient1017)"></circle><circle r="25" cx="1156.64" cy="699.77" fill="url(#SvgjsRadialGradient1017)"></circle><circle r="25" cx="1282.58" cy="206.24" fill="url(#SvgjsRadialGradient1017)"></circle><circle r="25" cx="1445.41" cy="59.02" fill="url(#SvgjsRadialGradient1017)"></circle><circle r="25" cx="1401.58" cy="553.46" fill="url(#SvgjsRadialGradient1017)"></circle><circle r="5" cx="-71.81" cy="663.24" fill="rgba(237, 232, 236, 0.6)"></circle><circle r="5" cx="72.31" cy="511.27" fill="rgba(237, 232, 236, 0.6)"></circle><circle r="5" cx="70.36" cy="702.15" fill="rgba(237, 232, 236, 0.6)"></circle><circle r="5" cx="256.15" cy="680.26" fill="rgba(237, 232, 236, 0.6)"></circle><circle r="5" cx="409.28" cy="498.51" fill="rgba(237, 232, 236, 0.6)"></circle><circle r="5" cx="339.41" cy="653.11" fill="rgba(237, 232, 236, 0.6)"></circle><circle r="5" cx="696.94" cy="371.58" fill="rgba(237, 232, 236, 0.6)"></circle><circle r="5" cx="683.69" cy="489.03" fill="rgba(237, 232, 236, 0.6)"></circle><circle r="5" cx="679.28" cy="667.47" fill="rgba(237, 232, 236, 0.6)"></circle><circle r="5" cx="978.3" cy="669.1" fill="rgba(237, 232, 236, 0.6)"></circle><circle r="5" cx="1161.84" cy="-73.05" fill="rgba(237, 232, 236, 0.6)"></circle><circle r="5" cx="1162.49" cy="222.42" fill="rgba(237, 232, 236, 0.6)"></circle><circle r="5" cx="1144.12" cy="388.3" fill="rgba(237, 232, 236, 0.6)"></circle><circle r="5" cx="1097.32" cy="554.18" fill="rgba(237, 232, 236, 0.6)"></circle><circle r="5" cx="1281.12" cy="-63" fill="rgba(237, 232, 236, 0.6)"></circle><circle r="5" cx="1274.33" cy="61.08" fill="rgba(237, 232, 236, 0.6)"></circle><circle r="5" cx="1249.51" cy="378.74" fill="rgba(237, 232, 236, 0.6)"></circle><circle r="5" cx="1298.14" cy="560.1" fill="rgba(237, 232, 236, 0.6)"></circle><circle r="5" cx="1242.33" cy="660.33" fill="rgba(237, 232, 236, 0.6)"></circle><circle r="5" cx="1454.36" cy="-70.72" fill="rgba(237, 232, 236, 0.6)"></circle><circle r="5" cx="1431.01" cy="226.3" fill="rgba(237, 232, 236, 0.6)"></circle><circle r="5" cx="1419.79" cy="406.04" fill="rgba(237, 232, 236, 0.6)"></circle><circle r="5" cx="1460.52" cy="685.4" fill="rgba(237, 232, 236, 0.6)"></circle><circle r="5" cx="1546.5" cy="-106.61" fill="rgba(237, 232, 236, 0.6)"></circle><circle r="5" cx="1591.71" cy="94.01" fill="rgba(237, 232, 236, 0.6)"></circle><circle r="5" cx="1548.31" cy="239.82" fill="rgba(237, 232, 236, 0.6)"></circle><circle r="5" cx="1550.01" cy="357.01" fill="rgba(237, 232, 236, 0.6)"></circle><circle r="5" cx="1578.82" cy="549.87" fill="rgba(237, 232, 236, 0.6)"></circle><circle r="5" cx="1562.25" cy="672.23" fill="rgba(237, 232, 236, 0.6)"></circle></g><defs><mask id="SvgjsMask1016"><rect width="1440" height="560" fill="#ffffff"></rect></mask><radialGradient id="SvgjsRadialGradient1017"><stop stop-color="#ffffff" offset="0.1"></stop><stop stop-color="rgba(72, 25, 63, 0.2)" offset="0.2"></stop><stop stop-color="rgba(72, 25, 63, 0)" offset="1"></stop></radialGradient></defs></svg>